<svg width="765" height="280" viewBox="0 0 765 280" fill="none" xmlns="http://www.w3.org/2000/svg">
<path d="M0 267.111L23.7738 174.84C108.374 215.576 143.545 144.831 147.936 111.367C156.304 47.5992 77.282 -9.34515 10.3569 23.0173C91.6976 -29.2888 163.672 20.3066 177.487 86.883C190.189 148.099 134.85 224.896 48.9598 206.971L37.8913 277.592C22.5866 279.68 10.203 275.671 0 267.111Z" fill="black"></path>
<path d="M53.3762 123.132L146.297 279.232C157.937 276.028 168.995 270.728 178.427 259.577L78.8417 106.488L96.4846 95.5028L106.138 77.6935L93.1557 57.0547L67.8566 61.5486L17.7576 92.174L1.11328 113.479L13.5962 135.116L42.391 129.457L53.3762 123.132Z" fill="black"></path>
<path d="M762.781 278H727.141V199.02H743.091V263.15H762.781V278Z" fill="black"></path>
<path d="M722.418 278H706.248L704.378 260.95H694.588L692.938 278H676.658L688.868 199.02H709.328L722.418 278ZM698.988 217.17L696.018 246.87H702.838L699.538 217.17H698.988Z" fill="black"></path>
<path d="M671.923 278H659.163L644.203 236.42H643.983V278H630.562V199.02H645.742L658.062 234.77H658.283V199.02H671.923V278Z" fill="black"></path>
<path d="M601.596 278.881C584.326 278.881 579.816 264.911 579.816 238.621C579.816 208.921 585.206 198.141 601.596 198.141C617.986 198.141 623.376 208.921 623.376 238.621C623.376 264.911 618.866 278.881 601.596 278.881ZM601.596 265.021C604.896 265.021 606.656 261.831 606.656 238.621C606.656 217.501 605.556 212.551 601.596 212.551C597.636 212.551 596.536 217.501 596.536 238.621C596.536 261.831 598.296 265.021 601.596 265.021Z" fill="black"></path>
<path d="M572.712 278H556.652V199.02H572.712V278Z" fill="black"></path>
<path d="M540.751 278H524.801V213.87H514.021V199.02H551.531V213.87H540.751V278Z" fill="black"></path>
<path d="M517.446 278H501.276L499.406 260.95H489.616L487.966 278H471.686L483.896 199.02H504.356L517.446 278ZM494.016 217.17L491.046 246.87H497.866L494.566 217.17H494.016Z" fill="black"></path>
<path d="M466.95 278H454.19L439.23 236.42H439.01V278H425.59V199.02H440.77L453.09 234.77H453.31V199.02H466.95V278Z" fill="black"></path>
<path d="M420.681 278H403.631L397.361 247.42H393.731V278H377.891V199.02H397.141C411.001 199.02 418.591 204.19 418.591 221.02C418.591 230.48 415.621 235.98 411.111 239.06L420.681 278ZM393.731 234.11H395.161C400.221 234.11 401.871 231.58 401.871 223.11C401.871 212.55 397.581 212.55 395.161 212.55H393.731V234.11Z" fill="black"></path>
<path d="M371.01 278H334.49V199.02H369.91V213.87H350.44V230.15H366.06V244.34H350.44V263.15H371.01V278Z" fill="black"></path>
<path d="M318.591 278H302.641V213.87H291.861V199.02H329.371V213.87H318.591V278Z" fill="black"></path>
<path d="M286.684 278H273.924L258.964 236.42H258.744V278H245.324V199.02H260.504L272.824 234.77H273.044V199.02H286.684V278Z" fill="black"></path>
<path d="M236.46 278H220.4V199.02H236.46V278Z" fill="black"></path>
<path d="M616.158 179H600.208V114.87H589.428V100.02H626.938V114.87H616.158V179Z" fill="black"></path>
<path d="M588.791 120.151L574.711 121.251C574.381 117.181 573.391 112.671 569.321 112.671C566.461 112.671 565.361 114.651 565.361 117.181C565.361 131.921 589.781 136.211 589.781 159.641C589.781 172.181 582.081 179.881 569.211 179.881C554.691 179.881 550.181 172.181 549.301 158.541L564.041 157.441C564.481 163.491 565.471 166.571 569.431 166.571C572.181 166.571 573.941 164.591 573.941 160.741C573.941 145.671 550.181 141.271 550.181 118.501C550.181 106.951 556.561 99.1406 569.101 99.1406C584.061 99.1406 587.911 108.931 588.791 120.151Z" fill="black"></path>
<path d="M545.496 179H529.436V100.02H545.496V179Z" fill="black"></path>
<path d="M522.28 179H509.52L494.56 137.42H494.34V179H480.92V100.02H496.1L508.42 135.77H508.64V100.02H522.28V179Z" fill="black"></path>
<path d="M458.225 159.2V100.02H473.955V157.99C473.955 172.84 467.355 179.44 453.605 179.44C439.965 179.44 433.365 172.84 433.365 157.99V100.02H449.315V159.2C449.315 164.26 450.965 166.02 453.715 166.02C456.575 166.02 458.225 164.26 458.225 159.2Z" fill="black"></path>
<path d="M426.397 179H412.977V130.82H412.757L404.287 179H395.157L386.357 130.82H386.137V179H372.717V100.02H392.517L399.447 140.72H399.667L407.477 100.02H426.397V179Z" fill="black"></path>
<path d="M365.528 179H352.108V130.82H351.888L343.418 179H334.288L325.488 130.82H325.268V179H311.848V100.02H331.648L338.578 140.72H338.798L346.608 100.02H365.528V179Z" fill="black"></path>
<path d="M284.639 179.881C267.369 179.881 262.859 165.911 262.859 139.621C262.859 109.921 268.249 99.1406 284.639 99.1406C301.029 99.1406 306.419 109.921 306.419 139.621C306.419 165.911 301.909 179.881 284.639 179.881ZM284.639 166.021C287.939 166.021 289.699 162.831 289.699 139.621C289.699 118.501 288.599 113.551 284.639 113.551C280.679 113.551 279.579 118.501 279.579 139.621C279.579 162.831 281.339 166.021 284.639 166.021Z" fill="black"></path>
<path d="M245.151 150.731H260.001C259.671 166.681 255.821 179.881 239.761 179.881C220.731 179.881 218.641 163.491 218.641 139.291C218.641 121.141 219.631 99.1406 239.541 99.1406C256.371 99.1406 259.231 111.461 259.561 126.861H244.711C244.381 119.381 243.391 113.881 240.201 113.881C236.571 113.881 235.361 119.051 235.361 139.291C235.361 162.391 236.351 165.691 240.201 165.691C243.831 165.691 244.821 159.531 245.151 150.731Z" fill="black"></path>
<path d="M749.356 79.9995H733.406V48.6495L718.336 1.01953H734.946L741.106 28.7395H741.326L747.816 1.01953H764.426L749.356 48.7595V79.9995Z" fill="black"></path>
<path d="M722.339 79.9995H705.289L699.019 49.4195H695.389V79.9995H679.549V1.01953H698.799C712.659 1.01953 720.249 6.18954 720.249 23.0195C720.249 32.4795 717.279 37.9795 712.769 41.0595L722.339 79.9995ZM695.389 36.1095H696.819C701.879 36.1095 703.529 33.5795 703.529 25.1095C703.529 14.5495 699.239 14.5495 696.819 14.5495H695.389V36.1095Z" fill="black"></path>
<path d="M676.916 79.9995H660.746L658.876 62.9495H649.086L647.436 79.9995H631.156L643.366 1.01953H663.826L676.916 79.9995ZM653.486 19.1695L650.516 48.8695H657.336L654.036 19.1695H653.486Z" fill="black"></path>
<path d="M628.51 79.9995H615.75L600.79 38.4195H600.57V79.9995H587.15V1.01953H602.33L614.65 36.7695H614.87V1.01953H628.51V79.9995Z" fill="black"></path>
<path d="M560.274 80.8806C543.004 80.8806 538.494 66.9106 538.494 40.6206C538.494 10.9206 543.884 0.140625 560.274 0.140625C576.664 0.140625 582.054 10.9206 582.054 40.6206C582.054 66.9106 577.544 80.8806 560.274 80.8806ZM560.274 67.0206C563.574 67.0206 565.334 63.8306 565.334 40.6206C565.334 19.5006 564.234 14.5506 560.274 14.5506C556.314 14.5506 555.214 19.5006 555.214 40.6206C555.214 63.8306 556.974 67.0206 560.274 67.0206Z" fill="black"></path>
<path d="M533.48 79.9995H517.42V1.01953H533.48V79.9995Z" fill="black"></path>
<path d="M503.611 79.9995H487.661V15.8695H476.881V1.01953H514.391V15.8695H503.611V79.9995Z" fill="black"></path>
<path d="M458.256 60.1995V1.01953H473.986V58.9895C473.986 73.8395 467.386 80.4395 453.636 80.4395C439.996 80.4395 433.396 73.8395 433.396 58.9895V1.01953H449.346V60.1995C449.346 65.2595 450.996 67.0195 453.746 67.0195C456.606 67.0195 458.256 65.2595 458.256 60.1995Z" fill="black"></path>
<path d="M430.953 79.9995H395.312V1.01953H411.263V65.1495H430.953V79.9995Z" fill="black"></path>
<path d="M368.436 80.8806C351.166 80.8806 346.656 66.9106 346.656 40.6206C346.656 10.9206 352.046 0.140625 368.436 0.140625C384.826 0.140625 390.216 10.9206 390.216 40.6206C390.216 66.9106 385.706 80.8806 368.436 80.8806ZM368.436 67.0206C371.736 67.0206 373.496 63.8306 373.496 40.6206C373.496 19.5006 372.396 14.5506 368.436 14.5506C364.476 14.5506 363.376 19.5006 363.376 40.6206C363.376 63.8306 365.136 67.0206 368.436 67.0206Z" fill="black"></path>
<path d="M334.27 79.9995H316.12L302.26 1.01953H319.2L324.81 51.5095H325.03L330.2 1.01953H347.14L334.27 79.9995Z" fill="black"></path>
<path d="M302.528 79.9995H266.008V1.01953H301.428V15.8695H281.958V32.1495H297.578V46.3395H281.958V65.1495H302.528V79.9995Z" fill="black"></path>
<path d="M263.19 79.9995H246.14L239.87 49.4195H236.24V79.9995H220.4V1.01953H239.65C253.51 1.01953 261.1 6.18954 261.1 23.0195C261.1 32.4795 258.13 37.9795 253.62 41.0595L263.19 79.9995ZM236.24 36.1095H237.67C242.73 36.1095 244.38 33.5795 244.38 25.1095C244.38 14.5495 240.09 14.5495 237.67 14.5495H236.24V36.1095Z" fill="black"></path>
</svg>