<svg width="1156" height="1156" viewBox="0 0 1156 1156" fill="none" xmlns="http://www.w3.org/2000/svg">
<path d="M0 0H1156V1156H0V0Z" fill="#EA1917"></path>
<path d="M349 934.621L415.581 679.411C652.513 792.08 751.013 596.407 763.31 503.851C786.745 327.477 565.436 169.976 378.005 259.486C605.808 114.814 807.38 251.989 846.069 436.131C881.643 605.447 726.66 817.858 486.117 768.279L455.118 963.609C412.256 969.383 377.574 958.296 349 934.621Z" fill="white"></path>
<path d="M498.488 536.392L758.722 968.145C791.321 959.284 822.29 944.624 848.706 913.782L569.807 490.356L619.218 459.972L646.254 410.714L609.895 353.629L539.042 366.059L398.735 450.765L352.121 509.691L387.081 569.537L467.723 553.885L498.488 536.392Z" fill="white"></path>
</svg>