<svg width="1106" height="644" viewBox="0 0 1106 644" fill="none" xmlns="http://www.w3.org/2000/svg">
<path d="M0 0H1106V644H0V0Z" fill="#EA1917"></path>
<path d="M142 452.111L165.774 359.84C250.374 400.576 285.545 329.831 289.936 296.367C298.304 232.599 219.282 175.655 152.357 208.017C233.698 155.711 305.672 205.307 319.487 271.883C332.189 333.099 276.85 409.896 190.96 391.971L179.891 462.592C164.587 464.68 152.203 460.671 142 452.111Z" fill="white"></path>
<path d="M195.376 308.132L288.297 464.232C299.937 461.028 310.995 455.728 320.427 444.577L220.842 291.488L238.485 280.503L248.138 262.694L235.156 242.055L209.857 246.549L159.758 277.174L143.113 298.479L155.596 320.116L184.391 314.457L195.376 308.132Z" fill="white"></path>
<path d="M904.781 463H869.141V384.02H885.091V448.15H904.781V463Z" fill="white"></path>
<path d="M864.418 463H848.248L846.378 445.95H836.588L834.938 463H818.658L830.868 384.02H851.328L864.418 463ZM840.988 402.17L838.018 431.87H844.838L841.538 402.17H840.988Z" fill="white"></path>
<path d="M813.923 463H801.163L786.203 421.42H785.983V463H772.562V384.02H787.742L800.062 419.77H800.283V384.02H813.923V463Z" fill="white"></path>
<path d="M743.596 463.881C726.326 463.881 721.816 449.911 721.816 423.621C721.816 393.921 727.206 383.141 743.596 383.141C759.986 383.141 765.376 393.921 765.376 423.621C765.376 449.911 760.866 463.881 743.596 463.881ZM743.596 450.021C746.896 450.021 748.656 446.831 748.656 423.621C748.656 402.501 747.556 397.551 743.596 397.551C739.636 397.551 738.536 402.501 738.536 423.621C738.536 446.831 740.296 450.021 743.596 450.021Z" fill="white"></path>
<path d="M714.712 463H698.652V384.02H714.712V463Z" fill="white"></path>
<path d="M682.751 463H666.801V398.87H656.021V384.02H693.531V398.87H682.751V463Z" fill="white"></path>
<path d="M659.446 463H643.276L641.406 445.95H631.616L629.966 463H613.686L625.896 384.02H646.356L659.446 463ZM636.016 402.17L633.046 431.87H639.866L636.566 402.17H636.016Z" fill="white"></path>
<path d="M608.95 463H596.19L581.23 421.42H581.01V463H567.59V384.02H582.77L595.09 419.77H595.31V384.02H608.95V463Z" fill="white"></path>
<path d="M562.681 463H545.631L539.361 432.42H535.731V463H519.891V384.02H539.141C553.001 384.02 560.591 389.19 560.591 406.02C560.591 415.48 557.621 420.98 553.111 424.06L562.681 463ZM535.731 419.11H537.161C542.221 419.11 543.871 416.58 543.871 408.11C543.871 397.55 539.581 397.55 537.161 397.55H535.731V419.11Z" fill="white"></path>
<path d="M513.01 463H476.49V384.02H511.91V398.87H492.44V415.15H508.06V429.34H492.44V448.15H513.01V463Z" fill="white"></path>
<path d="M460.591 463H444.641V398.87H433.861V384.02H471.371V398.87H460.591V463Z" fill="white"></path>
<path d="M428.684 463H415.924L400.964 421.42H400.744V463H387.324V384.02H402.504L414.824 419.77H415.044V384.02H428.684V463Z" fill="white"></path>
<path d="M378.46 463H362.4V384.02H378.46V463Z" fill="white"></path>
<path d="M758.158 364H742.208V299.87H731.428V285.02H768.938V299.87H758.158V364Z" fill="white"></path>
<path d="M730.791 305.151L716.711 306.251C716.381 302.181 715.391 297.671 711.321 297.671C708.461 297.671 707.361 299.651 707.361 302.181C707.361 316.921 731.781 321.211 731.781 344.641C731.781 357.181 724.081 364.881 711.211 364.881C696.691 364.881 692.181 357.181 691.301 343.541L706.041 342.441C706.481 348.491 707.471 351.571 711.431 351.571C714.181 351.571 715.941 349.591 715.941 345.741C715.941 330.671 692.181 326.271 692.181 303.501C692.181 291.951 698.561 284.141 711.101 284.141C726.061 284.141 729.911 293.931 730.791 305.151Z" fill="white"></path>
<path d="M687.496 364H671.436V285.02H687.496V364Z" fill="white"></path>
<path d="M664.28 364H651.52L636.56 322.42H636.34V364H622.92V285.02H638.1L650.42 320.77H650.64V285.02H664.28V364Z" fill="white"></path>
<path d="M600.225 344.2V285.02H615.955V342.99C615.955 357.84 609.355 364.44 595.605 364.44C581.965 364.44 575.365 357.84 575.365 342.99V285.02H591.315V344.2C591.315 349.26 592.965 351.02 595.715 351.02C598.575 351.02 600.225 349.26 600.225 344.2Z" fill="white"></path>
<path d="M568.397 364H554.977V315.82H554.757L546.287 364H537.157L528.357 315.82H528.137V364H514.717V285.02H534.517L541.447 325.72H541.667L549.477 285.02H568.397V364Z" fill="white"></path>
<path d="M507.528 364H494.108V315.82H493.888L485.418 364H476.288L467.488 315.82H467.268V364H453.848V285.02H473.648L480.578 325.72H480.798L488.608 285.02H507.528V364Z" fill="white"></path>
<path d="M426.639 364.881C409.369 364.881 404.859 350.911 404.859 324.621C404.859 294.921 410.249 284.141 426.639 284.141C443.029 284.141 448.419 294.921 448.419 324.621C448.419 350.911 443.909 364.881 426.639 364.881ZM426.639 351.021C429.939 351.021 431.699 347.831 431.699 324.621C431.699 303.501 430.599 298.551 426.639 298.551C422.679 298.551 421.579 303.501 421.579 324.621C421.579 347.831 423.339 351.021 426.639 351.021Z" fill="white"></path>
<path d="M387.151 335.731H402.001C401.671 351.681 397.821 364.881 381.761 364.881C362.731 364.881 360.641 348.491 360.641 324.291C360.641 306.141 361.631 284.141 381.541 284.141C398.371 284.141 401.231 296.461 401.561 311.861H386.711C386.381 304.381 385.391 298.881 382.201 298.881C378.571 298.881 377.361 304.051 377.361 324.291C377.361 347.391 378.351 350.691 382.201 350.691C385.831 350.691 386.821 344.531 387.151 335.731Z" fill="white"></path>
<path d="M891.356 265H875.406V233.65L860.336 186.02H876.946L883.106 213.74H883.326L889.816 186.02H906.426L891.356 233.76V265Z" fill="white"></path>
<path d="M864.339 265H847.289L841.019 234.42H837.389V265H821.549V186.02H840.799C854.659 186.02 862.249 191.19 862.249 208.02C862.249 217.48 859.279 222.98 854.769 226.06L864.339 265ZM837.389 221.11H838.819C843.879 221.11 845.529 218.58 845.529 210.11C845.529 199.55 841.239 199.55 838.819 199.55H837.389V221.11Z" fill="white"></path>
<path d="M818.916 265H802.746L800.876 247.95H791.086L789.436 265H773.156L785.366 186.02H805.826L818.916 265ZM795.486 204.17L792.516 233.87H799.336L796.036 204.17H795.486Z" fill="white"></path>
<path d="M770.51 265H757.75L742.79 223.42H742.57V265H729.15V186.02H744.33L756.65 221.77H756.87V186.02H770.51V265Z" fill="white"></path>
<path d="M702.274 265.881C685.004 265.881 680.494 251.911 680.494 225.621C680.494 195.921 685.884 185.141 702.274 185.141C718.664 185.141 724.054 195.921 724.054 225.621C724.054 251.911 719.544 265.881 702.274 265.881ZM702.274 252.021C705.574 252.021 707.334 248.831 707.334 225.621C707.334 204.501 706.234 199.551 702.274 199.551C698.314 199.551 697.214 204.501 697.214 225.621C697.214 248.831 698.974 252.021 702.274 252.021Z" fill="white"></path>
<path d="M675.48 265H659.42V186.02H675.48V265Z" fill="white"></path>
<path d="M645.611 265H629.661V200.87H618.881V186.02H656.391V200.87H645.611V265Z" fill="white"></path>
<path d="M600.256 245.2V186.02H615.986V243.99C615.986 258.84 609.386 265.44 595.636 265.44C581.996 265.44 575.396 258.84 575.396 243.99V186.02H591.346V245.2C591.346 250.26 592.996 252.02 595.746 252.02C598.606 252.02 600.256 250.26 600.256 245.2Z" fill="white"></path>
<path d="M572.953 265H537.312V186.02H553.263V250.15H572.953V265Z" fill="white"></path>
<path d="M510.436 265.881C493.166 265.881 488.656 251.911 488.656 225.621C488.656 195.921 494.046 185.141 510.436 185.141C526.826 185.141 532.216 195.921 532.216 225.621C532.216 251.911 527.706 265.881 510.436 265.881ZM510.436 252.021C513.736 252.021 515.496 248.831 515.496 225.621C515.496 204.501 514.396 199.551 510.436 199.551C506.476 199.551 505.376 204.501 505.376 225.621C505.376 248.831 507.136 252.021 510.436 252.021Z" fill="white"></path>
<path d="M476.27 265H458.12L444.26 186.02H461.2L466.81 236.51H467.03L472.2 186.02H489.14L476.27 265Z" fill="white"></path>
<path d="M444.528 265H408.008V186.02H443.428V200.87H423.958V217.15H439.578V231.34H423.958V250.15H444.528V265Z" fill="white"></path>
<path d="M405.19 265H388.14L381.87 234.42H378.24V265H362.4V186.02H381.65C395.51 186.02 403.1 191.19 403.1 208.02C403.1 217.48 400.13 222.98 395.62 226.06L405.19 265ZM378.24 221.11H379.67C384.73 221.11 386.38 218.58 386.38 210.11C386.38 199.55 382.09 199.55 379.67 199.55H378.24V221.11Z" fill="white"></path>
</svg>